Coordinates
version=1
nRows=7
nColumns=33
inDegrees=yes

Units are S.I. units (second, meters, Newtons, ...)
Angles are in degrees.

endheader
time	ground_thorax_rot_x	ground_thorax_rot_y	ground_thorax_rot_z	ground_thorax_tx	ground_thorax_ty	ground_thorax_tz	clav_prot_r	clav_elev_r	scapula_abduction_r	scapula_elevation_r	scapula_upward_rot_r	scapula_winging_r	shoulder_elv_r	plane_of_elev_r	axial_rot_r	elbow_flexion_r	pro_sup_r	wrist_flex_r	wrist_dev_r	clav_prot_l	clav_elev_l	scapula_abduction_l	scapula_elevation_l	scapula_upward_rot_l	scapula_winging_l	shoulder_elv_l	plane_of_elev_l	axial_rot_l	elbow_flexion_l	pro_sup_l	wrist_flex_l	wrist_dev_l
      1.75000000	     37.46017166	      8.30087824	     13.93859360	   -213.49768195	    819.24670386	      1.30961982	     15.75619699	     38.00451602	     40.41608265	     45.00000000	    -45.00000000	   2073.24800102	  -1908.45663577	    146.94144709	   -126.56222183	   1825.26562560	    163.32262324	     12.27768840	      5.20599186	     11.40983424	    -45.00000000	    -39.11454948	     45.00000000	    -45.00000000	  -2063.13672687	   -269.85210006	     18.22444540	   -179.99999979	   1795.89644651	    156.70658836	      9.44378140	    -16.97838379
      1.76000000	     37.52803250	      8.21120585	     13.83460513	   -211.29048429	    819.46161758	      1.29827077	     15.95590968	     38.11659117	     40.61133663	     45.00000000	    -45.00000000	   2073.21938797	  -1908.37308580	    146.78936401	   -127.30992585	   1825.27936387	    162.77746023	     12.22046730	      5.18038093	     11.43222755	    -45.00000000	    -39.25339153	     45.00000000	    -45.00000000	  -2063.41544383	   -269.71595122	     18.28580209	   -179.99999979	   1795.68511667	    155.70171425	      9.40898824	    -16.86302568
      1.77000000	     37.57044280	      8.09228797	     13.70648641	   -208.90226860	    819.64150086	      1.30679768	     16.28690193	     38.32846431	     40.90793449	     45.00000000	    -45.00000000	   2073.18720551	  -1908.28504943	    146.69418230	   -127.96174330	   1825.32313574	    162.52682507	     12.15106611	      5.14616632	     11.42208221	    -45.00000000	    -39.45196409	     45.00000000	    -45.00000000	  -2063.71659109	   -269.48757292	     18.29010432	   -179.99999979	   1795.40061298	    154.34471456	      9.35977225	    -16.72330893
      1.78000000	     37.60631715	      7.94199040	     13.60784233	   -206.33102725	    819.78378838	      1.33368584	     16.44600085	     38.41075071	     41.18790622	     45.00000000	    -45.00000000	   2073.18838351	  -1908.26577388	    146.57115268	   -128.56511310	   1825.36631878	    162.63901017	     12.06845033	      5.15823697	     11.47746462	    -45.00000000	    -39.63651480	     45.00000000	    -45.00000000	  -2063.94457988	   -269.29920781	     18.37606255	   -179.99999979	   1795.06792365	    152.86115873	      9.35594132	    -16.53002311
      1.79000000	     37.64718053	      7.85939473	     13.53398729	   -203.57235212	    819.88593054	      1.37679186	     15.97471151	     38.24711278	     41.28608396	     45.00000000	    -44.88944184	   2073.23353304	  -1908.15731867	    146.37129135	   -128.99623554	   1825.27849964	    163.01981737	     12.00034904	      5.20149320	     11.67820330	    -45.00000000	    -39.85881323	     45.00000000	    -45.00000000	  -2064.10995356	   -269.18023263	     18.61442690	   -179.99999979	   1794.86473935	    151.65089867	      9.41774263	    -16.25602062
      1.80000000	     37.65564551	      7.65885907	     13.47886799	   -200.62379436	    819.94297484	      1.43457519	     16.78076645	     38.62268498	     41.69820476	     45.00000000	    -44.81387300	   2073.33428809	  -1908.10946397	    146.40102764	   -129.29178880	   1825.36541778	    163.81156398	     11.87802873	      5.20485771	     11.52017439	    -45.00000000	    -39.98551386	     45.00000000	    -45.00000000	  -2064.50926480	   -268.88412484	     18.45992391	   -179.99999979	   1794.34520007	    149.44382023	      9.33038477	    -16.04633313
      1.81000000	     37.74804247	      7.47569125	     13.21573068	   -197.48176992	    819.95113561	      1.50548409	     16.58686338	     38.76303131	     41.78813203	     45.00000000	    -44.13366635	   2073.28274263	  -1908.15738844	    146.30316222	   -129.45043820	   1825.33070214	    164.69690239	     11.79648278	      5.15513605	     11.70504981	    -45.00000000	    -40.24751705	     45.00000000	    -45.00000000	  -2064.86085508	   -268.68862479	     18.67785991	   -179.99999979	   1794.03418992	    147.76025395	      9.28898813	    -15.79213298
